<?xml version="1.0" encoding="UTF-8"?>
<svg id="_Слой_2" data-name="Слой 2" xmlns="http://www.w3.org/2000/svg" viewBox="0 0 325.62 376.2">
  <defs>
    <style>
      .cls-1 {
        fill: #f7f8df;
      }

      .cls-2 {
        fill: #e9510e;
      }

      .cls-3 {
        fill: #364798;
      }

      .cls-4 {
        fill: #626aaf;
      }

      .cls-5 {
        fill: #7776b6;
      }

      .cls-6 {
        fill: #e5ebe6;
      }

      .cls-7 {
        fill: #ccd6ef;
      }
    </style>
  </defs>
  <g id="_Слой_1-2" data-name="Слой 1">
    <g>
      <path class="cls-3" d="M319.49,295.58h0c6.18-5.17,7.11-12.81,5.33-19.19-3.93-14.09-8.73-28.05-16.15-40.87-2.79,6.02-5.63,12.03-5.25,18.93-8.82,.37-16.24,3.68-21.9,10.72,5.19,14.14,10.38,28.28,15.57,42.42,7.84-3.31,17.16-3.84,22.4-12.01"/>
      <path class="cls-3" d="M237.92,84.25h0c4.95-4.51,5.32-10.58,5.69-16.64-3.41-14.26-8.43-27.89-15.61-40.71,.82,7.61-2.62,13.74-6.81,19.62-5.79,5.41-13.58,6.75-20.43,10.01,5.18,13.29,10.37,26.58,15.55,39.88,7.96-2.71,16.34-4.67,21.61-12.15"/>
      <path class="cls-3" d="M297.95,240.68h0c4.28-5.01,6.19-10.81,5.86-17.37-2.84-12.61-7.33-24.61-13.62-35.91,.63,8.36-2.22,15.4-8.02,21.34-5.9,3.89-12.28,6.72-19.08,8.61,4.52,11.69,9.03,23.37,13.55,35.05,7.64-2.94,15.81-4.91,21.32-11.72"/>
      <path class="cls-4" d="M297.09,307.59c-58.11,22.53-116.24,45.03-174.32,67.64-5.89,2.29-8.94,.49-11.12-5.2-31.36-81.61-62.83-163.17-94.27-244.74,2.19-2.61,5.32-3.56,8.33-4.72,53.99-20.82,107.96-41.73,161.95-62.54,4.24-1.64,8.44-3.74,13.25-2.44,2.87,1.36,4.45,3.9,5.54,6.66,4.43,11.25,9.37,22.3,12.72,33.95,9.93,22.41,18.06,45.52,26.91,68.35,6.71,17.3,14.08,34.37,19.63,52.11,5.12,11.32,9.8,22.8,13.37,34.72,2.14,4.09,3.91,8.32,4.93,12.83,5.31,10.76,9.06,22.14,13.28,33.33,1.26,3.33,1.62,6.73-.2,10.04"/>
      <path class="cls-7" d="M263.08,217.35c-62.87-168.93-51.51-97.05-17.67-148.08,15.62,42.26,34.28,80.76,46.35,125.37-.45,12.6-16.76,26.99-28.68,22.71"/>
      <path class="cls-5" d="M200.75,56.52c-57.5,22.18-115,44.37-172.51,66.54-3.48,1.34-6.88,3.25-10.86,2.23-.76-1.87-1.53-3.74-2.29-5.61,.36-4.31,3.32-6.12,6.99-7.23,60.49-23.42,121-46.77,181.51-70.13,4.85-1.87,9.74-3.51,11.03-9.42,.08-2.66,.66-5.31,.19-8.01-1.62-9.33-10.05-14.21-18.84-10.94-3,1.11-5.86,2.73-9.19,2.75-4.6-1.55-6.8,2.37-9.85,4.38-3.67,1.86-7.5,3.28-11.45,4.35-3.29,1.12-7.72-3.21-10.14,2.15-41.43,16.76-83.32,32.28-124.87,48.61-3.61,2.12-7.76,3.04-11.5,4.86-2.48,1.2-5.65,1.78-6.15,5.33-.28,.75-.72,1.4-1.3,1.94-4.16,.44-6.86-2.61-10.14-4.28-2.63-4.8-1.52-7.54,3.89-9.61C68.21,50.27,131.03,25.79,194,1.68c16.18-6.2,31.3,5.36,34,25.22,4.5,9.37-1.41,15.75-6.42,22.42-6.12,4.79-12.44,9.01-20.83,7.21"/>
      <path class="cls-7" d="M308.67,235.52c1.96,15.1-10.15,24.98-27.15,29.64-4.23-7.76-3.85-11.66-2.44-13.78,2.49-3.75,8.21-1.99,13.75-5.62,5.27-3.45,7.36-9.83,8.26-15.34,.86-2.67,2.11-5.59,3.52-5.56,1.99,.05,3.45,5.99,4.06,10.65"/>
      <path class="cls-3" d="M21.55,115.02c-2.15,1.56-4.31,3.11-6.46,4.66-4.58-11.88-9.15-23.75-13.73-35.63,4.07-.93,7.89-1.25,9.54,3.84,2.15-.1,3.22,1.34,4.17,2.94,.81,1.55,1.63,3.12,2.09,4.82,.65,1.57,1.37,3.12,1.83,4.77,.69,1.54,1.33,3.11,1.83,4.74,.49,1.2,1.08,2.35,1.34,3.63,.7,2.17,1,4.3-.61,6.24"/>
      <path class="cls-7" d="M200.34,172c6.32,16.35,12.71,32.67,18.93,49.06,3.45,9.09,1.83,12.87-7.07,16.34-26.64,10.38-53.29,20.71-80,30.9-11.08,4.22-14.7,2.52-19.1-8.78-11.75-30.16-23.38-60.36-34.98-90.57-1.15-3-1.85-6.19-2.75-9.29-1.45-5.03,.45-8.42,5.2-10.26,29.43-11.39,58.86-22.77,88.31-34.1,6.72-2.58,10.03,1.19,12.22,6.89,6.39,16.61,12.82,33.21,19.24,49.81"/>
      <path class="cls-7" d="M184.48,288.19c15.1-5.83,30.22-11.62,45.29-17.53,4.45-1.74,8.94-2.46,10.99,2.71,1.95,4.92-1.14,7.92-5.83,9.72-30.23,11.6-60.43,23.28-90.61,35.01-4.58,1.78-8.5,2.16-10.54-3.39-2.12-5.78,1.85-7.66,6.14-9.31,14.86-5.72,29.7-11.47,44.55-17.21"/>
      <path class="cls-2" d="M193,36.75c-6.71,6.34-15.83,7.42-23.89,10.77-3.2,1.33-3.91-1.97-4.81-4.07-2.64-6.16-5.15-12.37-7.71-18.56,1.2-7.47,5.14,.44,7.37-1.31,5.62,.92,10.62,.22,13.79-5.28,2.73-.29,1.1-10.69,7.22-3.11,1.48,.93,3.06,1.78,3.78,3.52,.8,1.53,1.56,3.08,2.02,4.76,.67,1.56,1.35,3.12,1.82,4.76,.69,1.58,1.28,3.18,1.49,4.91,.11,1.35-.12,2.59-1.08,3.62"/>
      <path class="cls-6" d="M177.75,18.3q-3.95,9.53-13.79,5.28c4.6-1.76,9.19-3.52,13.79-5.28"/>
      <path class="cls-1" d="M21.55,115.02c62.36-24.03,124.72-48.05,187.06-72.12,5.38-2.08,9.19-5.57,8.84-12h0c1.55-16.23-9.2-24.58-24.26-18.83-2.74,1.05-5.49,2.08-8.23,3.12,.64,1.61,1.29,3.23,1.93,4.84,.57,1.51,1.13,3.02,1.7,4.53l1.82,4.53c.57,1.52,1.15,3.04,1.72,4.56,.15,.53,.29,1.05,.44,1.57-4.72,1.62-9.16,3.94-13.83,5.66-10.05,3.71-10.02,3.63-14.3-5.96-1.74-3.9-2.02-9.25-7.86-10.06-3,1.21-5.99,2.45-9,3.63-39.95,15.53-79.91,31.04-119.87,46.56-4.54,1.68-9.04,3.51-13.64,4.99-4.23,1.36-4.81,3.74-2.65,7.27l-.51,.54c.74,1.49,1.48,2.97,2.21,4.46,.63,1.54,1.25,3.08,1.88,4.62,.55,1.49,1.09,2.97,1.63,4.45,.62,1.54,1.24,3.09,1.86,4.63,.42,.99,.84,1.98,1.25,2.97,.6,2,1.2,4.01,1.8,6.01"/>
    </g>
  </g>
</svg>