<svg width="98" height="98" viewBox="0 0 98 98" fill="none" xmlns="http://www.w3.org/2000/svg">
<path d="M49 1.96002C23.0202 1.96002 1.95996 23.0202 1.95996 49C1.95996 74.9798 23.0202 96.04 49 96.04C74.9798 96.04 96.04 74.9798 96.04 49C96.04 23.0202 74.9798 1.96002 49 1.96002ZM67.0908 55.0319C67.0908 55.0319 71.2509 59.1381 72.275 61.0442C72.3044 61.0834 72.3191 61.1226 72.3289 61.1422C72.7454 61.8429 72.8434 62.3868 72.6376 62.7935C72.2946 63.4697 71.1186 63.8029 70.7168 63.8323H63.3668C62.8572 63.8323 61.789 63.7 60.4954 62.8082C59.5007 62.1124 58.5207 60.9707 57.5652 59.8584C56.1393 58.2022 54.9045 56.7714 53.6599 56.7714C53.5018 56.7712 53.3447 56.796 53.1944 56.8449C52.2536 57.1487 51.0482 58.4913 51.0482 62.0683C51.0482 63.1855 50.1662 63.8274 49.5439 63.8274H46.1776C45.031 63.8274 39.0579 63.4256 33.7659 57.8445C27.2881 51.009 21.4571 37.2988 21.4081 37.1714C21.0406 36.2845 21.8001 35.8092 22.6282 35.8092H30.0517C31.0415 35.8092 31.3649 36.4119 31.5903 36.946C31.8549 37.5683 32.8251 40.0428 34.4176 42.826C36.9999 47.3634 38.5826 49.2058 39.8517 49.2058C40.0896 49.203 40.3234 49.1425 40.5328 49.0294C42.189 48.1082 41.8803 42.2037 41.8068 40.9787C41.8068 40.7484 41.8019 38.3376 40.9542 37.1812C40.3466 36.3433 39.3127 36.0248 38.6855 35.9072C38.9393 35.5569 39.2738 35.2729 39.6606 35.0791C40.7974 34.5107 42.8456 34.4274 44.8791 34.4274H46.011C48.216 34.4568 48.7844 34.5989 49.5831 34.7998C51.2001 35.1869 51.2344 36.2306 51.0923 39.8027C51.0482 40.817 51.0041 41.9636 51.0041 43.316C51.0041 43.61 50.9894 43.9236 50.9894 44.2568C50.9404 46.0747 50.8816 48.1376 52.1654 48.9853C52.3328 49.0903 52.5263 49.1463 52.724 49.147C53.1699 49.147 54.5125 49.147 58.1483 42.9093C59.2696 40.9016 60.2439 38.8153 61.0638 36.6667C61.1373 36.5393 61.3529 36.1473 61.6077 35.9954C61.7957 35.8996 62.0042 35.8508 62.2153 35.8533H70.9422C71.8928 35.8533 72.5445 35.9954 72.667 36.3629C72.8826 36.946 72.6278 38.7247 68.6441 44.1196L66.8654 46.4667C63.2541 51.2001 63.2541 51.4402 67.0908 55.0319Z" fill="#221F26"/>
</svg>
