<svg width="94" height="94" viewBox="0 0 94 94" fill="none" xmlns="http://www.w3.org/2000/svg">
<path d="M54.848 46.1824L43.852 41.0516C42.8924 40.606 42.1042 41.1054 42.1042 42.1678V51.8322C42.1042 52.8946 42.8924 53.394 43.852 52.9484L54.8431 47.8176C55.8076 47.3672 55.8076 46.6328 54.848 46.1824ZM47 0C21.0423 0 0 21.0423 0 47C0 72.9577 21.0423 94 47 94C72.9577 94 94 72.9577 94 47C94 21.0423 72.9577 0 47 0ZM47 66.0937C22.9419 66.0937 22.5208 63.9249 22.5208 47C22.5208 30.0751 22.9419 27.9062 47 27.9062C71.0581 27.9062 71.4792 30.0751 71.4792 47C71.4792 63.9249 71.0581 66.0937 47 66.0937Z" fill="#221F26"/>
</svg>
