<svg width="94" height="94" viewBox="0 0 94 94" fill="none" xmlns="http://www.w3.org/2000/svg">
<g clip-path="url(#clip0_31_12)">
<mask id="mask0_31_12" style="mask-type:luminance" maskUnits="userSpaceOnUse" x="0" y="0" width="94" height="94">
<path d="M0 0H94V94H0V0Z" fill="white"/>
</mask>
<g mask="url(#mask0_31_12)">
<path fill-rule="evenodd" clip-rule="evenodd" d="M94 47C94 72.9557 72.9557 94 47 94C21.0443 94 0 72.9557 0 47C0 21.0443 21.0443 0 47 0C72.9557 0 94 21.0443 94 47ZM48.6842 34.6978C44.1134 36.5973 34.9758 40.5336 21.2753 46.5026C19.0507 47.3878 17.8835 48.2533 17.7778 49.0993C17.5976 50.5328 19.3914 51.0968 21.8276 51.8606C22.1605 51.9663 22.5052 52.0721 22.8577 52.1896C25.2586 52.969 28.4859 53.8816 30.1623 53.9168C31.6858 53.9482 33.3857 53.3215 35.2618 52.0368C48.0614 43.3928 54.6688 39.0257 55.084 38.9317C55.3778 38.8651 55.7851 38.7789 56.0592 39.0257C56.3334 39.2685 56.306 39.7307 56.2786 39.856C56.0984 40.6119 49.0719 47.1488 45.4294 50.5328C44.2936 51.5864 43.4907 52.3345 43.3262 52.5068C42.958 52.8868 42.582 53.251 42.2217 53.5996C39.9892 55.7459 38.3207 57.3596 42.3157 59.9916C44.2348 61.2567 45.7702 62.3024 47.3016 63.3443C48.974 64.484 50.6425 65.6198 52.8045 67.0377C53.3528 67.398 53.8777 67.7701 54.3908 68.1343C56.3373 69.5247 58.0881 70.7702 60.2501 70.5744C61.5034 70.4569 62.8037 69.278 63.4617 65.7569C65.0167 57.4301 68.0795 39.3978 68.7884 31.9639C68.8316 31.3467 68.8053 30.7266 68.7101 30.1153C68.6531 29.6215 68.4127 29.1671 68.0364 28.8423C67.4763 28.3841 66.6068 28.2862 66.2152 28.294C64.4488 28.3253 61.7384 29.2693 48.6842 34.6978Z" fill="#221F26"/>
</g>
</g>
<defs>
<clipPath id="clip0_31_12">
<rect width="94" height="94" fill="white"/>
</clipPath>
</defs>
</svg>
