<svg width="111" height="109" viewBox="0 0 111 109" fill="none" xmlns="http://www.w3.org/2000/svg">
<path d="M38.4395 77.0878C38.4395 77.0878 33.9276 75.228 35.9457 69.1946C37.9564 63.1679 39.7943 60.5805 38.0818 47.4934C36.3693 34.4062 38.1636 28.0222 45.765 20.566C53.3664 13.1097 63.5934 10.2258 75.9056 14.4579C88.2178 18.69 95.9883 33.1381 93.0936 46.343C90.1916 59.5547 81.5739 63.125 75.993 67.4363C70.412 71.7476 67.1731 76.3771 64.7732 81.9603C62.3733 87.5434 55.0854 84.2331 55.0854 84.2331L38.4395 77.0878Z" fill="#F49D1A"/>
<path d="M56.908 89.3047L35.3656 80.0546C34.804 79.8081 34.538 79.1581 34.7846 78.5966L35.3665 77.2441C35.613 76.6826 36.263 76.4166 36.8245 76.6631L58.3669 85.9133C58.9285 86.1598 59.1945 86.8097 58.948 87.3713L58.366 88.7237C58.1195 89.2853 57.4628 89.5438 56.908 89.3047Z" fill="#565553"/>
<path d="M55.449 92.6962L33.9066 83.446C33.3451 83.1995 33.079 82.5495 33.3256 81.988L33.9075 80.6356C34.154 80.074 34.804 79.808 35.3655 80.0546L56.908 89.3047C57.4695 89.5512 57.7355 90.2012 57.489 90.7627L56.907 92.1152C56.6605 92.6767 56.0106 92.9427 55.449 92.6962Z" fill="#565553"/>
<path d="M53.99 96.0876L32.4476 86.8375C31.8861 86.5909 31.6201 85.941 31.8666 85.3795L32.4485 84.027C32.6951 83.4655 33.345 83.1995 33.9066 83.446L55.449 92.6962C56.0105 92.9427 56.2765 93.5926 56.03 94.1542L55.4481 95.5066C55.2083 96.0755 54.5516 96.3341 53.99 96.0876Z" fill="#565553"/>
<path d="M52.5313 99.4791L30.9889 90.2289C30.4273 89.9824 30.1613 89.3324 30.4078 88.7709L30.9898 87.4185C31.2363 86.8569 31.8863 86.5909 32.4478 86.8375L53.9903 96.0876C54.5518 96.3341 54.8178 96.9841 54.5713 97.5456L53.9893 98.8981C53.7495 99.467 53.0928 99.7256 52.5313 99.4791Z" fill="#565553"/>
<path d="M48.0272 101.57L32.7962 95.0308C32.3523 94.8395 32.0243 94.4485 31.9055 93.9756L31.2908 91.454C31.1734 90.9528 31.668 90.5307 32.1468 90.7307L51.5669 99.0716C52.0383 99.2784 52.0776 99.9315 51.6335 100.186L49.4116 101.488C48.989 101.737 48.471 101.761 48.0272 101.57Z" fill="#565553"/>
<path d="M42.8229 103.351L35.2492 100.097C35.159 100.058 35.0985 99.9911 35.0603 99.9043L33.4098 95.9595C33.2828 95.656 33.5877 95.3522 33.8856 95.4869L46.793 101.029C47.0842 101.156 47.086 101.56 46.7967 101.688L43.1135 103.344C43.0261 103.396 42.913 103.391 42.8229 103.351Z" fill="#565553"/>
<path d="M58.2298 22.5117L55.8297 18.9909C55.3935 18.3469 55.5286 17.4544 56.1524 16.996C57.2682 16.1719 59.1449 15.1297 61.2946 15.3253C61.7103 15.3666 62.0815 15.5969 62.3201 15.934L64.5731 19.1292C65.1363 19.9279 64.7637 21.0497 63.8285 21.3586C62.2676 21.871 60.9844 22.4958 60.1332 22.9716C59.4785 23.3365 58.6459 23.1335 58.2298 22.5117Z" fill="#F9D377"/>
<path d="M53.279 21.0909C53.279 21.0909 52.1833 19.7355 50.8905 20.8555C49.5977 21.9754 44.9083 24.5316 42.4358 31.1802C39.9633 37.8288 39.7378 46.3272 45.8578 54.4802C45.8578 54.4802 45.2721 47.0966 47.7093 39.8587C50.1465 32.6208 56.5712 26.8139 56.5712 26.8139C56.5712 26.8139 57.5639 25.899 56.3881 24.5893C55.2057 23.2722 53.279 21.0909 53.279 21.0909Z" fill="#F9D377"/>
</svg>
