<svg width="659" height="548" viewBox="0 0 659 548" fill="none" xmlns="http://www.w3.org/2000/svg">
<path d="M29.2394 317.066L338.581 360.945L649.169 326.907L476.264 463.283L193.915 468.041L29.2394 317.066Z" fill="#8AA5C3"/>
<path d="M217.928 451.461L493.885 455.851L348.321 220.302C345.115 215.115 337.458 215.422 334.681 220.873L217.928 451.461Z" fill="#DFEBE9"/>
<path d="M20.9901 329.296L196.386 543.59L337.764 413.339L29.2393 317.066C21.9498 314.779 16.1509 323.375 20.9901 329.296Z" fill="#FDFDFD"/>
<path d="M657.03 339.403L474.916 548L337.744 413.319L649.168 326.928C656.54 324.865 662.053 333.645 657.03 339.403Z" fill="#FDFDFD"/>
<path d="M196.366 543.569L474.916 548L337.744 413.319L196.366 543.569Z" fill="#EAF5F4"/>
<path d="M207.902 80.2505L163.696 174.033L107.116 186.244L108.729 194.738L198.244 200.782L221.583 90.2148L207.902 80.2505Z" fill="#E84427"/>
<path d="M448.25 22.5884C448.188 22.4863 448.127 22.3638 448.086 22.2617C447.943 21.9962 447.821 21.7104 447.841 21.4245C447.862 21.1386 448.045 20.8732 448.229 20.6486C450.577 17.6675 454.355 15.2377 454.457 11.4602C447.739 18.2392 440.368 23.8135 433.242 30.1637C432.486 30.8375 432.609 32.2668 433.528 32.7568C435.345 33.6961 436.509 34.472 438.367 35.35C439.061 35.6767 439.694 35.6155 440.286 35.1254C441.042 34.5128 450.475 26.9988 449.924 25.9166C449.352 24.7936 448.801 23.691 448.25 22.5884Z" fill="#FAC081"/>
<path d="M260.725 73.9616L352.895 74.5946L437.469 26.2433L442.941 32.8589L361.368 102.18L274.569 125.641L260.725 73.9616Z" fill="#E84427"/>
<path d="M266.034 76.861C261.338 71.1234 254.967 66.8355 247.964 64.5078C242.9 62.7926 237.468 62.1188 232.139 62.6905C230.281 62.8947 228.423 63.2418 226.606 63.7523C216.131 66.6517 206.963 74.3496 202.879 84.4364C200.531 90.2352 199.816 96.5854 199.143 102.813C194.998 140.935 190.444 178.341 193.099 216.79C193.201 218.28 194.201 219.485 195.753 219.546C221.644 220.465 246.983 225.263 271.445 233.819C272.568 234.207 273.548 233.798 274.161 233.023C274.344 233.227 274.712 233.165 274.732 232.839C274.773 232.43 274.794 232.042 274.814 231.634C274.875 231.348 274.896 231.062 274.875 230.776C276.999 202.497 276.386 173.788 276.835 145.447C277.203 121.762 282.471 96.8712 266.034 76.861Z" fill="#ED6B33"/>
<path d="M209.352 196.33L128.433 186.591L94.4563 190.654L30.9952 304.426L40.2449 304.569L101.358 230.817L205.534 255.585L261.154 389.266L285.391 395.8L274.936 225.1L209.352 196.33Z" fill="#221F26"/>
<path d="M30.9954 304.426L10.0664 311.798L0 316.249L9.14756 321.803L35.508 317.168L40.2451 304.569L30.9954 304.426Z" fill="black"/>
<path d="M107.116 186.244L94.4564 190.654L96.5391 196.085L102.787 196.167L107.116 186.244Z" fill="#FAC081"/>
<path d="M247.964 64.5078L230.506 127.07L226.626 63.7727L226.606 63.7523C228.423 63.2622 230.281 62.8947 232.139 62.6905C237.468 62.1188 242.879 62.7926 247.964 64.5078Z" fill="#E84427"/>
<path d="M208.535 30.8579L197.142 39.1479C195.345 40.4547 196.019 43.2929 198.224 43.64L206.963 45.0284L208.535 30.8579Z" fill="#E84427"/>
<path d="M234.63 71.348C230.751 71.2051 230.73 62.4251 231.22 55.932C227.708 57.9942 221.379 58.3005 219.03 57.7288C218.357 57.5655 217.622 57.3204 216.866 56.9733C212.782 55.5849 208.76 52.5833 206.922 47.7441C204.819 42.2107 206.187 34.8804 208.535 29.7757C213.681 18.5659 226.585 14.8906 233.793 25.0386C237.264 29.9391 238.081 36.7181 238.387 43.0478C238.714 49.5001 238.53 56.0749 238.224 62.3026C238.224 65.202 239.081 69.3674 236.509 70.8171C236.06 71.0417 235.386 71.348 234.63 71.348Z" fill="#FAC081"/>
<path d="M240 21.5062C236.733 14.9314 230.485 12.5016 223.42 12.9916C220.95 13.155 218.418 13.7675 215.927 14.1963C216.355 13.6246 216.703 13.012 216.948 12.3995C218.214 9.2346 217.111 5.55925 214.375 3.49697C213.987 3.21111 213.599 2.98652 213.211 2.80275C210.067 -0.0762748 205.105 -0.648013 201.123 0.679196C189.689 4.49748 187.851 19.056 195.937 27.0192C200.899 31.8993 207.657 32.4914 214.293 32.1851C218.499 32.0014 222.706 31.6338 226.912 31.3684C230.138 31.1642 231.343 31.45 232.364 34.8191C232.711 35.983 232.466 37.1672 232.976 38.3311C233.936 40.5363 235.835 41.251 237.652 40.9447C238.571 41.4347 239.714 41.2306 240.939 39.74C244.717 35.1662 242.308 26.1412 240 21.5062Z" fill="#0A0116"/>
</svg>
