<svg width="125" height="125" viewBox="0 0 125 125" fill="none" xmlns="http://www.w3.org/2000/svg">
<path d="M117.774 103.974L30.6938 124.174C26.0938 125.244 21.4938 122.374 20.4238 117.774L0.223814 30.6938C-0.846186 26.0938 2.02381 21.4938 6.62381 20.4238L93.7038 0.223814C98.3038 -0.846186 102.904 2.02381 103.974 6.62381L124.174 93.7038C125.244 98.3038 122.384 102.904 117.774 103.974Z" fill="#088837"/>
<path d="M33.6738 60.8138C25.2638 48.0038 16.1238 34.7438 11.4538 19.3038L6.62381 20.4238C2.02381 21.4938 -0.846186 26.0938 0.223814 30.6938L20.4238 117.774C21.4938 122.374 26.0938 125.244 30.6938 124.174L114.044 104.844C82.3238 100.694 52.0238 86.9438 33.6738 60.8138Z" fill="#006C33"/>
<path d="M11.3938 29.8738L34.4038 42.2938L37.6038 56.0838L45.9638 54.1438" stroke="#62B668" stroke-width="1.8681" stroke-miterlimit="10" stroke-linecap="round" stroke-linejoin="round"/>
<path d="M48.9838 56.5538C50.7014 56.5538 52.0938 55.1614 52.0938 53.4438C52.0938 51.7262 50.7014 50.3338 48.9838 50.3338C47.2662 50.3338 45.8738 51.7262 45.8738 53.4438C45.8738 55.1614 47.2662 56.5538 48.9838 56.5538Z" stroke="#62B668" stroke-width="1.8681" stroke-miterlimit="10" stroke-linecap="round" stroke-linejoin="round"/>
<path d="M30.8137 113.584L46.0037 92.3038L42.8037 78.5138L51.1637 76.5738" stroke="#62B668" stroke-width="1.8681" stroke-miterlimit="10" stroke-linecap="round" stroke-linejoin="round"/>
<path d="M54.1937 78.9838C55.9113 78.9838 57.3037 77.5914 57.3037 75.8738C57.3037 74.1562 55.9113 72.7638 54.1937 72.7638C52.4761 72.7638 51.0837 74.1562 51.0837 75.8738C51.0837 77.5914 52.4761 78.9838 54.1937 78.9838Z" stroke="#62B668" stroke-width="1.8681" stroke-miterlimit="10" stroke-linecap="round" stroke-linejoin="round"/>
<path d="M73.2437 47.8138L81.6037 45.8738L78.4037 32.0838L93.5937 10.8138" stroke="#62B668" stroke-width="1.8681" stroke-miterlimit="10" stroke-linecap="round" stroke-linejoin="round"/>
<path d="M70.2138 51.6338C71.9314 51.6338 73.3238 50.2414 73.3238 48.5238C73.3238 46.8062 71.9314 45.4138 70.2138 45.4138C68.4962 45.4138 67.1038 46.8062 67.1038 48.5238C67.1038 50.2414 68.4962 51.6338 70.2138 51.6338Z" stroke="#62B668" stroke-width="1.8681" stroke-miterlimit="10" stroke-linecap="round" stroke-linejoin="round"/>
<path d="M78.4438 70.2438L86.8038 68.3038L90.0038 82.1038L113.014 94.5138" stroke="#62B668" stroke-width="1.8681" stroke-miterlimit="10" stroke-linecap="round" stroke-linejoin="round"/>
<path d="M75.4237 74.0538C77.1413 74.0538 78.5337 72.6614 78.5337 70.9438C78.5337 69.2262 77.1413 67.8338 75.4237 67.8338C73.7061 67.8338 72.3137 69.2262 72.3137 70.9438C72.3137 72.6614 73.7061 74.0538 75.4237 74.0538Z" stroke="#62B668" stroke-width="1.8681" stroke-miterlimit="10" stroke-linecap="round" stroke-linejoin="round"/>
<path d="M108.854 97.2638L35.7639 114.224C31.9039 115.124 28.0439 112.714 27.1439 108.854L10.1839 35.7638C9.28386 31.9038 11.6939 28.0438 15.5539 27.1438L88.6439 10.1838C92.5039 9.2838 96.3639 11.6938 97.2639 15.5538L114.224 88.6438C115.124 92.5038 112.714 96.3638 108.854 97.2638Z" stroke="white" stroke-width="1.8681" stroke-miterlimit="10" stroke-linecap="round" stroke-linejoin="round"/>
<path d="M32.9439 66.9838L18.2139 70.4038" stroke="white" stroke-width="1.8681" stroke-miterlimit="10" stroke-linecap="round" stroke-linejoin="round"/>
<path d="M36.8639 69.6838C38.5815 69.6838 39.9739 68.2914 39.9739 66.5738C39.9739 64.8562 38.5815 63.4638 36.8639 63.4638C35.1463 63.4638 33.7539 64.8562 33.7539 66.5738C33.7539 68.2914 35.1463 69.6838 36.8639 69.6838Z" stroke="white" stroke-width="1.8681" stroke-miterlimit="10" stroke-linecap="round" stroke-linejoin="round"/>
<path d="M28.8339 59.8538C30.5515 59.8538 31.9439 58.4614 31.9439 56.7438C31.9439 55.0262 30.5515 53.6338 28.8339 53.6338C27.1163 53.6338 25.7239 55.0262 25.7239 56.7438C25.7239 58.4614 27.1163 59.8538 28.8339 59.8538Z" stroke="white" stroke-width="1.8681" stroke-miterlimit="10" stroke-linecap="round" stroke-linejoin="round"/>
<path d="M15.1238 57.0538L18.4838 59.1438L25.0238 57.6338" stroke="white" stroke-width="1.8681" stroke-miterlimit="10" stroke-linecap="round" stroke-linejoin="round"/>
<path d="M33.7538 81.0838C35.4714 81.0838 36.8638 79.6914 36.8638 77.9738C36.8638 76.2562 35.4714 74.8638 33.7538 74.8638C32.0362 74.8638 30.6438 76.2562 30.6438 77.9738C30.6438 79.6914 32.0362 81.0838 33.7538 81.0838Z" stroke="white" stroke-width="1.8681" stroke-miterlimit="10" stroke-linecap="round" stroke-linejoin="round"/>
<path d="M21.3137 83.7338L23.4037 80.3738L29.9437 78.8538" stroke="white" stroke-width="1.8681" stroke-miterlimit="10" stroke-linecap="round" stroke-linejoin="round"/>
<path d="M105.314 50.1938L90.5837 53.6138" stroke="white" stroke-width="1.8681" stroke-miterlimit="10" stroke-linecap="round" stroke-linejoin="round"/>
<path d="M86.6637 57.1238C88.3813 57.1238 89.7737 55.7314 89.7737 54.0138C89.7737 52.2962 88.3813 50.9038 86.6637 50.9038C84.9461 50.9038 83.5537 52.2962 83.5537 54.0138C83.5537 55.7314 84.9461 57.1238 86.6637 57.1238Z" stroke="white" stroke-width="1.8681" stroke-miterlimit="10" stroke-linecap="round" stroke-linejoin="round"/>
<path d="M94.6937 66.9538C96.4113 66.9538 97.8037 65.5614 97.8037 63.8438C97.8037 62.1262 96.4113 60.7338 94.6937 60.7338C92.9761 60.7338 91.5837 62.1262 91.5837 63.8438C91.5837 65.5614 92.9761 66.9538 94.6937 66.9538Z" stroke="white" stroke-width="1.8681" stroke-miterlimit="10" stroke-linecap="round" stroke-linejoin="round"/>
<path d="M98.5037 62.9538L105.044 61.4338L108.404 63.5338" stroke="white" stroke-width="1.8681" stroke-miterlimit="10" stroke-linecap="round" stroke-linejoin="round"/>
<path d="M89.7638 45.7238C91.4814 45.7238 92.8738 44.3314 92.8738 42.6138C92.8738 40.8962 91.4814 39.5038 89.7638 39.5038C88.0462 39.5038 86.6538 40.8962 86.6538 42.6138C86.6538 44.3314 88.0462 45.7238 89.7638 45.7238Z" stroke="white" stroke-width="1.8681" stroke-miterlimit="10" stroke-linecap="round" stroke-linejoin="round"/>
<path d="M93.5737 41.7238L100.114 40.2138L102.214 36.8438" stroke="white" stroke-width="1.8681" stroke-miterlimit="10" stroke-linecap="round" stroke-linejoin="round"/>
<path d="M55.0738 31.4838L52.1038 18.6538" stroke="white" stroke-width="1.8681" stroke-miterlimit="10" stroke-linecap="round" stroke-linejoin="round"/>
<path d="M55.4838 38.5038C57.2014 38.5038 58.5938 37.1114 58.5938 35.3938C58.5938 33.6762 57.2014 32.2838 55.4838 32.2838C53.7662 32.2838 52.3738 33.6762 52.3738 35.3938C52.3738 37.1114 53.7662 38.5038 55.4838 38.5038Z" stroke="white" stroke-width="1.8681" stroke-miterlimit="10" stroke-linecap="round" stroke-linejoin="round"/>
<path d="M65.3139 30.4738C67.0315 30.4738 68.4239 29.0814 68.4239 27.3638C68.4239 25.6462 67.0315 24.2538 65.3139 24.2538C63.5963 24.2538 62.2039 25.6462 62.2039 27.3638C62.2039 29.0814 63.5963 30.4738 65.3139 30.4738Z" stroke="white" stroke-width="1.8681" stroke-miterlimit="10" stroke-linecap="round" stroke-linejoin="round"/>
<path d="M64.4338 23.5538L62.9138 17.0038L63.5438 15.9938" stroke="white" stroke-width="1.8681" stroke-miterlimit="10" stroke-linecap="round" stroke-linejoin="round"/>
<path d="M44.0839 35.4038C45.8015 35.4038 47.1939 34.0114 47.1939 32.2938C47.1939 30.5762 45.8015 29.1838 44.0839 29.1838C42.3663 29.1838 40.9739 30.5762 40.9739 32.2938C40.9739 34.0114 42.3663 35.4038 44.0839 35.4038Z" stroke="white" stroke-width="1.8681" stroke-miterlimit="10" stroke-linecap="round" stroke-linejoin="round"/>
<path d="M40.6638 21.3038L41.6738 21.9338L43.1938 28.4838" stroke="white" stroke-width="1.8681" stroke-miterlimit="10" stroke-linecap="round" stroke-linejoin="round"/>
<path d="M72.3038 105.734L68.4438 89.1138" stroke="white" stroke-width="1.8681" stroke-miterlimit="10" stroke-linecap="round" stroke-linejoin="round"/>
<path d="M68.0438 88.3038C69.7614 88.3038 71.1538 86.9114 71.1538 85.1938C71.1538 83.4762 69.7614 82.0838 68.0438 82.0838C66.3262 82.0838 64.9338 83.4762 64.9338 85.1938C64.9338 86.9114 66.3262 88.3038 68.0438 88.3038Z" stroke="white" stroke-width="1.8681" stroke-miterlimit="10" stroke-linecap="round" stroke-linejoin="round"/>
<path d="M58.2138 96.3338C59.9314 96.3338 61.3238 94.9414 61.3238 93.2238C61.3238 91.5062 59.9314 90.1138 58.2138 90.1138C56.4962 90.1138 55.1038 91.5062 55.1038 93.2238C55.1038 94.9414 56.4962 96.3338 58.2138 96.3338Z" stroke="white" stroke-width="1.8681" stroke-miterlimit="10" stroke-linecap="round" stroke-linejoin="round"/>
<path d="M59.0937 97.0338L60.6137 103.574L57.0637 109.274" stroke="white" stroke-width="1.8681" stroke-miterlimit="10" stroke-linecap="round" stroke-linejoin="round"/>
<path d="M79.4437 91.4138C81.1613 91.4138 82.5537 90.0214 82.5537 88.3038C82.5537 86.5862 81.1613 85.1938 79.4437 85.1938C77.7261 85.1938 76.3337 86.5862 76.3337 88.3038C76.3337 90.0214 77.7261 91.4138 79.4437 91.4138Z" stroke="white" stroke-width="1.8681" stroke-miterlimit="10" stroke-linecap="round" stroke-linejoin="round"/>
<path d="M80.3337 92.1138L81.8537 98.6538L87.5437 102.204" stroke="white" stroke-width="1.8681" stroke-miterlimit="10" stroke-linecap="round" stroke-linejoin="round"/>
</svg>
