<svg width="1920" height="131" viewBox="0 0 1920 131" fill="none" xmlns="http://www.w3.org/2000/svg">
<path fill-rule="evenodd" clip-rule="evenodd" d="M1920 46.7069V131H0V89.407L64 82.3348C128 74.7288 256 61.3851 384 68.057C459.819 72.0089 535.638 83.92 611.456 95.831C663.638 104.029 715.819 112.226 768 117.829C896 132.107 1024 132.107 1152 103.685C1202.65 92.2266 1253.3 76.5267 1303.95 60.8269C1381.3 36.8519 1458.65 12.8768 1536 4.00695C1658.98 -10.0955 1781.96 16.45 1848.18 30.7435L1848.19 30.7462C1850.89 31.3288 1853.49 31.8909 1856 32.4291L1920 46.7069Z" fill="#0B3D62"/>
</svg>
